<svg xml:space="preserve" viewBox="336.96 490.32 406.08 97.2" version="1.1" xmlns:xlink="http://www.w3.org/1999/xlink" xmlns="http://www.w3.org/2000/svg" style="max-height: 500px" width="406.08" height="97.2">
<desc>Created with Fabric.js 5.2.4</desc>
<defs>
</defs>
<rect fill="transparent" height="100%" width="100%" y="0" x="0"/>
<g id="2c77d54e-8684-428b-9cdc-6ff8b6985938" transform="matrix(1 0 0 1 540 540)">
<rect height="1080" width="1080" ry="0" rx="0" y="-540" x="-540" style="stroke: none; stroke-width: 1; stroke-dasharray: none; stroke-linecap: butt; stroke-dashoffset: 0; stroke-linejoin: miter; stroke-miterlimit: 4; fill: rgb(255,255,255); fill-rule: nonzero; opacity: 1; visibility: hidden;"/>
</g>
<g id="3ec48586-81c0-45df-919f-25ac045682b0" transform="matrix(1 0 0 1 540 540)">
</g>
<g transform="matrix(2.96 0 0 2.96 540 540)">
<g style="">
		<g transform="matrix(0.35 0 0 0.35 8.7 -0.01)">
<path stroke-linecap="round" d="M 99.12 46.17 L 99.12 44.75 C 101.84 44.49 102.96000000000001 43.45 104.89 38.59 L 120.07 0 L 124.72 0 L 141.51 41.37 C 142.7 44.22 143.23999999999998 44.55 145.42 44.75 L 145.42 46.17 L 121.53999999999999 46.17 L 121.53999999999999 44.75 L 124.53999999999999 44.75 C 125.2269131353853 44.83291391668209 125.9164650130041 44.617840116511225 126.43443960994594 44.159117226230634 C 126.95241420688778 43.70039433595004 127.24926779637187 43.0418987187604 127.24999999999999 42.35 C 127.18393130731525 41.276336665575876 126.93713207418017 40.221523504779356 126.51999999999998 39.23 L 123.40999999999998 31.510000000000005 L 110.84999999999998 31.510000000000005 L 108.46999999999998 38.190000000000005 C 107.95658138924315 39.334803463690484 107.66476618534342 40.566535080150985 107.60999999999999 41.82000000000001 C 107.60999999999999 43.52000000000001 108.73999999999998 44.75000000000001 112.78999999999999 44.75000000000001 L 112.78999999999999 46.17000000000001 z M 117.12 15.3 L 111.81 28.92 L 122.36 28.92 z M 68.93 23.87 L 68.93 38.65 C 68.93 43.129999999999995 70.62 44.65 74.21000000000001 44.75 L 74.21000000000001 46.17 L 50.25 46.17 L 50.25 44.75 C 54.38 44.75 55.99 43.64 55.99 38.65 L 55.99 7.52 C 55.99 2.5199999999999996 54.31 1.4299999999999997 50.25 1.4299999999999997 L 50.25 0 L 74.25 0 L 74.25 1.42 C 70.66 1.5499999999999998 68.97 3.0300000000000002 68.97 7.51 L 68.97 20.75 L 82.48 20.75 L 82.48 7.52 C 82.48 3.05 80.8 1.5199999999999996 77.21000000000001 1.4299999999999997 L 77.21000000000001 0 L 101.21000000000001 0 L 101.21000000000001 1.42 C 97.08000000000001 1.42 95.46000000000001 2.52 95.46000000000001 7.51 L 95.46000000000001 38.64 C 95.46000000000001 43.64 97.08000000000001 44.730000000000004 101.21000000000001 44.730000000000004 L 101.21000000000001 46.17 L 77.25 46.17 L 77.25 44.75 C 80.84 44.62 82.52 43.13 82.52 38.65 L 82.52 23.87 z M 216.86 46.17 L 205.86 25.17 L 204.53 25.17 L 204.53 38.650000000000006 C 204.53 43.650000000000006 206.16 44.75000000000001 210.34 44.75000000000001 L 210.34 46.17000000000001 L 185.68 46.17000000000001 L 185.68 44.75000000000001 C 189.86 44.75000000000001 191.49 43.64000000000001 191.49 38.650000000000006 L 191.49 7.52 C 191.49 2.5199999999999996 189.86 1.4299999999999997 185.68 1.4299999999999997 L 185.68 0 L 210.25 0 C 221.51 0 227.09 4.28 227.09 12.64 C 227.09 18.94 223.82 22.11 218.68 24.310000000000002 L 227.52 40.72 C 228.97 43.37 229.88000000000002 44.61 232.79000000000002 44.72 L 232.79000000000002 46.14 z M 204.58 22.3 C 211.36 22.3 214.39000000000001 20.880000000000003 214.39000000000001 13.030000000000001 C 214.39000000000001 4.920000000000002 211.85000000000002 2.8400000000000016 204.58 2.8400000000000016 z M 232.42000000000002 46.17 L 232.42000000000002 44.75 C 236.82000000000002 44.75 238.54000000000002 43.64 238.54000000000002 38.65 L 238.54000000000002 7.52 C 238.54000000000002 2.5199999999999996 236.82000000000002 1.4299999999999997 232.42000000000002 1.4299999999999997 L 232.42000000000002 0 L 271.96000000000004 0 L 271.96000000000004 12.71 L 270.56000000000006 12.71 C 269.8500000000001 5.710000000000001 266.7300000000001 2.8400000000000016 259.46000000000004 2.8400000000000016 L 252.32000000000005 2.8400000000000016 L 252.32000000000005 21.260000000000005 C 258.82000000000005 21.260000000000005 260.32000000000005 19.060000000000006 261.24000000000007 11.410000000000005 L 262.64000000000004 11.410000000000005 L 262.64000000000004 33.84 L 261.25000000000006 33.84 C 260.36000000000007 26.190000000000005 258.83000000000004 23.990000000000002 252.33000000000007 24.120000000000005 L 252.33000000000007 39.95 C 252.33000000000007 42.410000000000004 252.84000000000006 43.32 255.52000000000007 43.32 L 261.14000000000004 43.32 C 265.35 43.32 270.71000000000004 42.410000000000004 273.26000000000005 32.56 L 274.85 32.56 L 272.54 46.17 z M 284.94 46.17 L 284.94 44.75 C 289.43 44.75 291.18 43.64 291.18 38.65 L 291.18 2.86 C 280.77 2.86 279.47 4.55 278.56 11.94 L 277.12 11.94 L 277.12 0 L 319.25 0 L 319.25 11.92 L 317.85 11.92 C 316.94 4.54 315.64000000000004 2.84 305.23 2.84 L 305.23 38.64 C 305.23 43.64 306.98 44.730000000000004 311.47 44.730000000000004 L 311.47 46.17 z M 321.2 46.17 L 347.08 2.8400000000000034 L 338.25 2.8400000000000034 C 331.42 2.8400000000000034 328.13 4.600000000000003 325.9 12.960000000000003 L 324.45 12.960000000000003 L 325.33 -0.03999999999999737 L 363.77 -0.03999999999999737 L 337.83 43.32 L 348.41999999999996 43.32 C 352.87999999999994 43.32 360.17999999999995 42.03 363.05999999999995 30.61 L 364.49999999999994 30.61 L 362.66999999999996 46.17 z M 141.38 46.17 L 141.38 44.75 C 144.1 44.49 145.23 43.45 147.15 38.59 L 162.34 0 L 166.98 0 L 183.76999999999998 41.37 C 184.95999999999998 44.22 185.49999999999997 44.55 187.67999999999998 44.75 L 187.67999999999998 46.17 L 163.8 46.17 L 163.8 44.75 L 166.8 44.75 C 167.48851738582178 44.83601700622135 168.1808349852 44.62235387823085 168.70112472883048 44.16327469267454 C 169.22141447246096 43.704195507118236 169.5196178219461 43.04386956258222 169.52 42.35 C 169.4491280501924 41.277046763762456 169.20251237769955 40.22301813612181 168.79000000000002 39.230000000000004 L 165.67000000000002 31.510000000000005 L 153.12 31.510000000000005 L 150.73000000000002 38.190000000000005 C 150.21658138924317 39.33480346369049 149.92476618534346 40.566535080150985 149.87 41.820000000000014 C 149.87 43.52000000000001 151 44.75000000000001 155.05 44.75000000000001 L 155.05 46.17000000000001 z M 159.38 15.3 L 154.07 28.92 L 164.63 28.92 z" transform="translate(-207.37, -23.07)" style="stroke: none; stroke-width: 1; stroke-dasharray: none; stroke-linecap: butt; stroke-dashoffset: 0; stroke-linejoin: miter; stroke-miterlimit: 4; fill: rgb(0,0,0); fill-rule: nonzero; opacity: 1;"/>
</g>
		<g transform="matrix(0.35 0 0 0.35 -55.67 -0.29)">
<path stroke-linecap="round" d="M 43 22.23 C 43.01995081716783 25.09922678341678 42.44804260946188 27.94174674433625 41.32000000000001 30.579999999999984 C 39.12816188429836 35.74223158155951 35.02031785369323 39.85366011829956 29.86 42.05 C 24.511749176322194 44.290053440267414 18.488250823677802 44.29005344026741 13.14 42.05 C 7.979682146306778 39.85366011829956 3.871838115701639 35.742231581559516 1.679999999999998 30.580000000000005 C -0.5595060226431852 25.23510714656441 -0.5595060226431838 19.214892853435586 1.68 13.870000000000001 C 3.8766023676159156 8.713319143207695 7.983319143207693 4.606602367615915 13.139999999999995 2.41 C 18.488250823677802 0.1699465597325842 24.51174917632219 0.16994655973258688 29.859999999999996 2.41 C 35.016680856792306 4.606602367615914 39.12339763238408 8.713319143207695 41.32 13.870000000000001 C 42.44801619116368 16.511772747406877 43.01989420907763 19.357546693692946 43 22.229999999999986 z M 32.67 29.58 C 32.61 29.139999999999997 32.57 28.77 32.54 28.49 C 32.517119487033376 28.209041499071404 32.5339516978607 27.92626035717229 32.589999999999996 27.65 C 32.586976453358425 27.367962575848317 32.613792284244695 27.086396351542458 32.669999999999995 26.810000000000002 C 32.73 26.529999999999998 32.779999999999994 26.2 32.839999999999996 25.81 C 32.284708175829095 25.462908805316793 31.753498759200358 25.07870073668595 31.25 24.660000000000004 Q 30.499999999999996 24.080000000000002 29.659999999999997 23.490000000000002 C 29.099999999999998 23.1 28.519999999999996 22.680000000000003 27.939999999999998 22.23 C 27.36 21.779999999999998 26.689999999999998 21.3 25.939999999999998 20.8 C 25.720406772971955 20.613521553955604 25.560448095641323 20.366628812858323 25.479999999999997 20.09 C 25.345992786191708 19.75728657982948 25.301181465424573 19.39534898901803 25.349999999999998 19.04 C 25.44498037951323 18.56123885301673 25.681935034906218 18.122175815082656 26.029999999999998 17.779999999999998 C 26.305469038278968 17.46431050385042 26.701122186616498 17.279188388573225 27.119999999999997 17.269999999999996 L 32.66 17.269999999999996 Q 31.069999999999997 13.069999999999997 32.58 10.639999999999997 L 24.779999999999998 10.639999999999997 C 24.77385288725487 10.977120482469806 24.730251842759774 11.312513132432093 24.65 11.639999999999997 C 24.57668957612902 12.100433467372103 24.57668957612902 12.569566532627892 24.65 13.029999999999998 C 24.648503821447733 13.301259447093614 24.68898254409494 13.57111759807498 24.77 13.829999999999998 C 24.869061398675363 14.11562830796306 24.939409061489883 14.41041851404296 24.98 14.71 C 25.04148315087592 15.013826959592649 25.084892696533085 15.321032975012601 25.11 15.63 C 25.135580700756883 16.027899531642333 25.091588611508524 16.427212341742838 24.98 16.81 C 24.82169828262111 17.33337675541093 24.610613679744834 17.839309692463598 24.35 18.32 C 24.213679850912186 18.602656873522033 23.993741173888314 18.83655991099187 23.720000000000002 18.990000000000002 C 22.830000000000002 18.32 21.85 17.590000000000003 20.78 16.810000000000002 L 17.68 14.540000000000003 C 16.68 13.760000000000003 15.68 13.030000000000003 14.82 12.360000000000003 C 13.96 11.690000000000003 13.2 11.130000000000003 12.64 10.680000000000003 L 11.09 10.680000000000003 C 11.03 10.680000000000003 11 10.680000000000003 11 10.760000000000003 C 11.231483569363366 11.157296621605873 11.416052810667756 11.58012797441229 11.55 12.02 C 11.689455409633752 12.459733245256675 11.786563596491838 12.911788597871908 11.84 13.370000000000005 C 11.9 13.810000000000002 11.94 14.280000000000003 11.97 14.750000000000004 C 12.010328319584609 15.212455793750324 12.010328319584607 15.677544206249683 11.969999999999999 16.140000000000004 C 11.91 16.700000000000003 11.850000000000001 17.140000000000004 11.8 17.560000000000002 C 11.75 17.98 11.690000000000001 18.320000000000004 11.63 18.660000000000004 C 11.567819927682535 18.963706904506946 11.524404403533794 19.270955229251896 11.5 19.58000000000001 L 11.5 20.840000000000007 C 11.496529727392696 21.376106183004445 11.540029328884518 21.91148589367305 11.63 22.440000000000012 C 11.71 22.94000000000001 11.780000000000001 23.44000000000001 11.840000000000002 23.95000000000001 C 11.900000000000002 24.46000000000001 12.030000000000001 24.95000000000001 12.090000000000002 25.46000000000001 C 12.150388218047086 25.98827984109487 12.150388218047084 26.521720158905154 12.09 27.05000000000001 C 12.030000000000001 27.84000000000001 11.96 28.580000000000013 11.88 29.280000000000012 C 11.8 29.98000000000001 11.700000000000001 30.610000000000014 11.590000000000002 31.170000000000012 C 11.480000000000002 31.73000000000001 11.360000000000001 32.30000000000001 11.250000000000002 32.72000000000001 C 11.175524224483235 33.065305994073 11.06143572974418 33.40086039036434 10.910000000000002 33.72000000000001 C 10.853255890570495 33.865396444548445 10.888661220461533 34.03062131737329 11.000000000000002 34.140000000000015 L 20.150000000000002 34.140000000000015 C 19.34074215700846 32.292323809759466 19.023785846424467 30.266559563853097 19.229999999999997 28.260000000000012 L 15.71 28.260000000000016 C 15.14565504447468 28.26526195082967 14.609119687816309 28.015368771016185 14.25 27.580000000000016 C 13.86162960029312 27.151223910205953 13.586624341763365 26.632151484731036 13.45 26.070000000000014 C 13.271078830144644 25.45508660112241 13.17028628076073 24.820093540003747 13.149999999999999 24.180000000000014 C 13.123359619215348 23.51062265659638 13.1669308373937 22.840296223083243 13.279999999999998 22.180000000000017 C 13.316045169734535 21.419431658220002 13.580942609978512 20.68747820491427 14.039999999999997 20.080000000000013 C 14.43 19.630000000000013 14.649999999999999 19.41000000000001 14.709999999999999 19.41000000000001 L 33.85 33.58000000000001 C 33.85 33.52000000000001 33.85 33.49000000000001 33.93 33.49000000000001 C 34.01 33.49000000000001 33.99 33.49000000000001 33.93 33.41000000000001 C 33.82260470803824 33.069658850649894 33.69572864531947 32.735774475074194 33.55 32.41000000000001 C 33.41 32.10000000000001 33.29 31.780000000000012 33.169999999999995 31.41000000000001 C 33.04999999999999 31.04000000000001 32.959999999999994 30.73000000000001 32.879999999999995 30.41000000000001 C 32.8 30.09000000000001 32.73 29.81000000000001 32.669999999999995 29.580000000000013 z" transform="translate(-21.5, -22.23)" style="stroke: none; stroke-width: 1; stroke-dasharray: none; stroke-linecap: butt; stroke-dashoffset: 0; stroke-linejoin: miter; stroke-miterlimit: 4; fill: rgb(32,100,255); fill-rule: nonzero; opacity: 1;"/>
</g>
</g>
</g>
</svg>