<svg width="1200" height="630" viewBox="0 0 1200 630" fill="none" xmlns="http://www.w3.org/2000/svg" role="img" aria-label="Minimal Bangladesh-toned illustration hinting BNP vs Jamaat female-male vote split.">
  <rect width="1200" height="630" fill="#F6F4EE"/>
  <rect x="88" y="64" width="1024" height="502" rx="8" stroke="#121212" stroke-width="2"/>

  <circle cx="330" cy="214" r="100" fill="#DA291C"/>
  <rect x="120" y="428" width="960" height="84" fill="#006A4E"/>

  <line x1="140" y1="284" x2="1060" y2="284" stroke="#D5D5D5" stroke-width="2"/>
  <line x1="140" y1="366" x2="1060" y2="366" stroke="#D5D5D5" stroke-width="2"/>

  <text x="152" y="290" fill="#3B3B3B" font-size="16" font-family="IBM Plex Mono, monospace" letter-spacing="1.2">FEMALE</text>
  <text x="152" y="372" fill="#3B3B3B" font-size="16" font-family="IBM Plex Mono, monospace" letter-spacing="1.2">MALE</text>

  <rect x="560" y="196" width="18" height="210" fill="#111111"/>
  <rect x="508" y="224" width="124" height="12" rx="6" fill="#111111"/>
  <rect x="538" y="148" width="82" height="108" rx="4" transform="rotate(8 538 148)" fill="#F6F4EE" stroke="#111111" stroke-width="3"/>
  <path d="M560 206L578 224L609 185" stroke="#111111" stroke-width="5" stroke-linecap="round" stroke-linejoin="round"/>

  <rect x="700" y="210" width="120" height="250" fill="#0F0F0F"/>
  <rect x="700" y="210" width="120" height="122" fill="#DA291C"/>
  <rect x="860" y="210" width="120" height="250" fill="#0F0F0F"/>
  <rect x="860" y="210" width="120" height="132" fill="#DA291C"/>

  <text x="720" y="488" fill="#1C1C1C" font-size="18" font-family="IBM Plex Mono, monospace" letter-spacing="1.5">BNP</text>
  <text x="872" y="488" fill="#1C1C1C" font-size="18" font-family="IBM Plex Mono, monospace" letter-spacing="1.5">JAMAAT</text>

  <path d="M702 332H818" stroke="#F0ECE5" stroke-width="2" stroke-dasharray="4 5"/>
  <path d="M862 342H978" stroke="#F0ECE5" stroke-width="2" stroke-dasharray="4 5"/>
</svg>
